<svg width="120" height="120" viewBox="0 0 120 120" xmlns="http://www.w3.org/2000/svg">
  <defs>
    <!-- Clean gradient -->
    <linearGradient id="primaryGrad" x1="0%" y1="0%" x2="100%" y2="100%">
      <stop offset="0%" style="stop-color:#2563eb;stop-opacity:1" />
      <stop offset="100%" style="stop-color:#1e40af;stop-opacity:1" />
    </linearGradient>
    
    <!-- Subtle shadow -->
    <filter id="softShadow" x="-20%" y="-20%" width="140%" height="140%">
      <feDropShadow dx="0" dy="2" stdDeviation="4" flood-color="rgba(37, 99, 235, 0.25)"/>
    </filter>
    
    <!-- Text glow -->
    <filter id="textGlow" x="-10%" y="-10%" width="120%" height="120%">
      <feGaussianBlur stdDeviation="1" result="coloredBlur"/>
      <feMerge> 
        <feMergeNode in="coloredBlur"/>
        <feMergeNode in="SourceGraphic"/>
      </feMerge>
    </filter>
  </defs>
  
  <!-- Main container - simple rounded square -->
  <rect x="10" y="10" width="100" height="100" rx="20" ry="20" 
        fill="url(#primaryGrad)" 
        filter="url(#softShadow)"/>
  
  <!-- Subtle inner highlight -->
  <rect x="12" y="12" width="96" height="96" rx="18" ry="18" 
        fill="none" 
        stroke="rgba(255,255,255,0.2)" 
        stroke-width="1"/>
  
  <!-- Letter M - Clean and Bold -->
  <g transform="translate(20, 35)">
    <path d="M 0 40 L 0 10 L 8 10 L 18 25 L 28 10 L 36 10 L 36 40 L 28 40 L 28 22 L 22 32 L 14 32 L 8 22 L 8 40 Z" 
          fill="white" 
          filter="url(#textGlow)"/>
  </g>
  
  <!-- Letter S - Clean and Bold -->
  <g transform="translate(65, 35)">
    <path d="M 25 18 C 25 12 21 8 15 8 C 9 8 5 12 5 18 L 12 18 C 12 15 13 14 15 14 C 17 14 18 15 18 18 C 18 21 16 22 13 24 C 8 26 3 28 3 35 C 3 41 7 45 15 45 C 21 45 25 41 25 35 L 18 35 C 18 38 17 39 15 39 C 13 39 12 38 12 35 C 12 32 14 31 17 29 C 22 27 25 25 25 18 Z" 
          fill="white" 
          filter="url(#textGlow)"/>
  </g>
  
  <!-- Simple accent dot -->
  <circle cx="60" cy="25" r="3" fill="rgba(255,255,255,0.8)">
    <animate attributeName="opacity" values="0.6;1;0.6" dur="2s" repeatCount="indefinite"/>
  </circle>
  
  <!-- Minimal corner indicators -->
  <circle cx="25" cy="95" r="1.5" fill="rgba(255,255,255,0.6)"/>
  <circle cx="95" cy="25" r="1.5" fill="rgba(255,255,255,0.6)"/>
</svg>