<svg width="120" height="120" viewBox="0 0 120 120" xmlns="http://www.w3.org/2000/svg">
  <defs>
    <!-- Gradient definitions -->
    <linearGradient id="primaryGradient" x1="0%" y1="0%" x2="100%" y2="100%">
      <stop offset="0%" style="stop-color:#667eea;stop-opacity:1" />
      <stop offset="100%" style="stop-color:#764ba2;stop-opacity:1" />
    </linearGradient>
    
    <linearGradient id="accentGradient" x1="0%" y1="0%" x2="100%" y2="100%">
      <stop offset="0%" style="stop-color:#2563eb;stop-opacity:1" />
      <stop offset="100%" style="stop-color:#1e40af;stop-opacity:1" />
    </linearGradient>
    
    <!-- Glow filter -->
    <filter id="glow" x="-50%" y="-50%" width="200%" height="200%">
      <feGaussianBlur stdDeviation="3" result="coloredBlur"/>
      <feMerge> 
        <feMergeNode in="coloredBlur"/>
        <feMergeNode in="SourceGraphic"/>
      </feMerge>
    </filter>
    
    <!-- Shadow filter -->
    <filter id="shadow" x="-50%" y="-50%" width="200%" height="200%">
      <feDropShadow dx="2" dy="4" stdDeviation="3" flood-color="rgba(37, 99, 235, 0.3)"/>
    </filter>
  </defs>
  
  <!-- Background circle with gradient -->
  <circle cx="60" cy="60" r="55" fill="url(#primaryGradient)" filter="url(#shadow)"/>
  
  <!-- Inner circle for depth -->
  <circle cx="60" cy="60" r="45" fill="none" stroke="rgba(255,255,255,0.2)" stroke-width="1"/>
  
  <!-- Letter M -->
  <g transform="translate(20, 35)">
    <path d="M 0 40 L 0 5 L 8 5 L 18 25 L 28 5 L 36 5 L 36 40 L 28 40 L 28 18 L 20 35 L 16 35 L 8 18 L 8 40 Z" 
          fill="white" 
          filter="url(#glow)"
          style="font-weight: bold;"/>
  </g>
  
  <!-- Letter S -->
  <g transform="translate(65, 35)">
    <path d="M 25 15 C 25 10 22 5 15 5 C 8 5 5 10 5 15 L 13 15 C 13 12 14 11 15 11 C 16 11 17 12 17 15 C 17 18 15 19 12 21 C 8 23 3 25 3 32 C 3 37 6 42 15 42 C 22 42 25 37 25 32 L 17 32 C 17 35 16 36 15 36 C 14 36 13 35 13 32 C 13 29 15 28 18 26 C 22 24 25 22 25 15 Z" 
          fill="white" 
          filter="url(#glow)"
          style="font-weight: bold;"/>
  </g>
  
  <!-- Decorative elements -->
  <circle cx="25" cy="25" r="2" fill="rgba(255,255,255,0.6)" opacity="0.8">
    <animate attributeName="opacity" values="0.4;0.8;0.4" dur="2s" repeatCount="indefinite"/>
  </circle>
  
  <circle cx="95" cy="25" r="1.5" fill="rgba(255,255,255,0.6)" opacity="0.6">
    <animate attributeName="opacity" values="0.3;0.7;0.3" dur="2.5s" repeatCount="indefinite"/>
  </circle>
  
  <circle cx="95" cy="95" r="2" fill="rgba(255,255,255,0.6)" opacity="0.7">
    <animate attributeName="opacity" values="0.4;0.8;0.4" dur="3s" repeatCount="indefinite"/>
  </circle>
  
  <!-- Tech-inspired geometric accent -->
  <g transform="translate(85, 75)" opacity="0.3">
    <polygon points="0,0 6,0 6,6 0,6" fill="white" transform="rotate(45)">
      <animateTransform attributeName="transform" type="rotate" values="0;360" dur="10s" repeatCount="indefinite"/>
    </polygon>
  </g>
</svg>