<svg width="120" height="120" viewBox="0 0 120 120" xmlns="http://www.w3.org/2000/svg">
  <defs>
    <!-- Advanced gradients -->
    <linearGradient id="mainGradient" x1="0%" y1="0%" x2="100%" y2="100%">
      <stop offset="0%" style="stop-color:#1e3a8a;stop-opacity:1" />
      <stop offset="30%" style="stop-color:#2563eb;stop-opacity:1" />
      <stop offset="70%" style="stop-color:#3b82f6;stop-opacity:1" />
      <stop offset="100%" style="stop-color:#60a5fa;stop-opacity:1" />
    </linearGradient>
    
    <linearGradient id="accentGradient" x1="0%" y1="0%" x2="100%" y2="100%">
      <stop offset="0%" style="stop-color:#10b981;stop-opacity:1" />
      <stop offset="100%" style="stop-color:#059669;stop-opacity:1" />
    </linearGradient>
    
    <radialGradient id="centerGlow" cx="50%" cy="50%" r="50%">
      <stop offset="0%" style="stop-color:rgba(255,255,255,0.3);stop-opacity:1" />
      <stop offset="70%" style="stop-color:rgba(255,255,255,0.1);stop-opacity:1" />
      <stop offset="100%" style="stop-color:rgba(255,255,255,0);stop-opacity:0" />
    </radialGradient>
    
    <!-- Advanced filters -->
    <filter id="innerShadow" x="-50%" y="-50%" width="200%" height="200%">
      <feOffset dx="0" dy="0"/>
      <feGaussianBlur stdDeviation="2" result="offset-blur"/>
      <feFlood flood-color="rgba(0,0,0,0.3)"/>
      <feComposite in2="offset-blur" operator="in"/>
      <feComposite in2="SourceGraphic" operator="over"/>
    </filter>
    
    <filter id="letterGlow" x="-20%" y="-20%" width="140%" height="140%">
      <feGaussianBlur stdDeviation="2" result="coloredBlur"/>
      <feMerge> 
        <feMergeNode in="coloredBlur"/>
        <feMergeNode in="SourceGraphic"/>
      </feMerge>
    </filter>
    
    <filter id="outerGlow" x="-50%" y="-50%" width="200%" height="200%">
      <feGaussianBlur stdDeviation="4" result="coloredBlur"/>
      <feMerge> 
        <feMergeNode in="coloredBlur"/>
        <feMergeNode in="SourceGraphic"/>
      </feMerge>
    </filter>
  </defs>
  
  <!-- Outer ring with rotation -->
  <circle cx="60" cy="60" r="58" fill="none" stroke="url(#mainGradient)" stroke-width="2" opacity="0.6">
    <animateTransform attributeName="transform" type="rotate" values="0 60 60;360 60 60" dur="20s" repeatCount="indefinite"/>
  </circle>
  
  <!-- Main hexagonal background -->
  <polygon points="60,8 95,30 95,70 60,92 25,70 25,30" 
           fill="url(#mainGradient)" 
           filter="url(#outerGlow)"
           stroke="rgba(255,255,255,0.2)" 
           stroke-width="1"/>
  
  <!-- Inner glow effect -->
  <polygon points="60,8 95,30 95,70 60,92 25,70 25,30" 
           fill="url(#centerGlow)" 
           opacity="0.7"/>
  
  <!-- Geometric accent lines -->
  <g stroke="rgba(255,255,255,0.3)" stroke-width="1" fill="none">
    <line x1="60" y1="8" x2="60" y2="30" opacity="0.8"/>
    <line x1="95" y1="30" x2="78" y2="42" opacity="0.6"/>
    <line x1="95" y1="70" x2="78" y2="58" opacity="0.6"/>
    <line x1="60" y1="92" x2="60" y2="70" opacity="0.8"/>
    <line x1="25" y1="70" x2="42" y2="58" opacity="0.6"/>
    <line x1="25" y1="30" x2="42" y2="42" opacity="0.6"/>
  </g>
  
  <!-- Letter M with modern styling -->
  <g transform="translate(25, 38)">
    <path d="M 0 35 L 0 8 L 6 8 L 6 5 L 8 5 L 8 8 L 14 8 L 21 23 L 28 8 L 34 8 L 34 5 L 36 5 L 36 8 L 42 8 L 42 35 L 36 35 L 36 18 L 31 30 L 25 30 L 20 18 L 20 35 L 14 35 L 14 18 L 9 30 L 3 30 L 3 18 L 3 35 Z" 
          fill="white" 
          filter="url(#letterGlow)"
          opacity="0.95"/>
    
    <!-- Modern accent on M -->
    <rect x="8" y="5" width="28" height="2" fill="url(#accentGradient)" opacity="0.8"/>
  </g>
  
  <!-- Letter S with sleek design -->
  <g transform="translate(70, 38)">
    <path d="M 22 12 C 22 8 19 5 13 5 C 7 5 4 8 4 12 L 10 12 C 10 10 11 9 13 9 C 15 9 16 10 16 12 C 16 14 14 15 11 16 C 7 17 2 19 2 25 C 2 29 5 32 13 32 C 19 32 22 29 22 25 L 16 25 C 16 27 15 28 13 28 C 11 28 10 27 10 25 C 10 23 12 22 15 21 C 19 20 22 18 22 12 Z" 
          fill="white" 
          filter="url(#letterGlow)"
          opacity="0.95"/>
    
    <!-- Modern accent on S -->
    <ellipse cx="13" cy="4" rx="11" ry="1.5" fill="url(#accentGradient)" opacity="0.8"/>
  </g>
  
  <!-- Central connecting element -->
  <circle cx="60" cy="50" r="3" fill="url(#accentGradient)" opacity="0.9">
    <animate attributeName="r" values="2;4;2" dur="3s" repeatCount="indefinite"/>
    <animate attributeName="opacity" values="0.7;1;0.7" dur="3s" repeatCount="indefinite"/>
  </circle>
  
  <!-- Corner tech elements -->
  <g opacity="0.4">
    <!-- Top left -->
    <rect x="30" y="20" width="6" height="1" fill="white">
      <animate attributeName="width" values="3;8;3" dur="4s" repeatCount="indefinite"/>
    </rect>
    <rect x="32" y="22" width="2" height="4" fill="white">
      <animate attributeName="height" values="2;6;2" dur="4s" repeatCount="indefinite"/>
    </rect>
    
    <!-- Top right -->
    <rect x="84" y="20" width="6" height="1" fill="white">
      <animate attributeName="width" values="3;8;3" dur="5s" repeatCount="indefinite"/>
    </rect>
    <rect x="86" y="22" width="2" height="4" fill="white">
      <animate attributeName="height" values="2;6;2" dur="5s" repeatCount="indefinite"/>
    </rect>
    
    <!-- Bottom -->
    <circle cx="60" cy="80" r="1" fill="white">
      <animate attributeName="r" values="0.5;2;0.5" dur="3.5s" repeatCount="indefinite"/>
    </circle>
  </g>
  
  <!-- Data stream effect -->
  <g opacity="0.3">
    <circle cx="40" cy="40" r="1" fill="url(#accentGradient)">
      <animateMotion dur="6s" repeatCount="indefinite" 
                     path="M 0,0 Q 20,0 40,20 T 40,40 Q 20,40 0,20 Z"/>
    </circle>
    <circle cx="80" cy="60" r="1" fill="url(#accentGradient)">
      <animateMotion dur="8s" repeatCount="indefinite" 
                     path="M 0,0 Q -20,0 -40,20 T -40,40 Q -20,40 0,20 Z"/>
    </circle>
  </g>
  
  <!-- Subtle scanning line effect -->
  <line x1="25" y1="30" x2="95" y2="70" stroke="rgba(16, 185, 129, 0.6)" stroke-width="1" opacity="0">
    <animate attributeName="opacity" values="0;0.8;0" dur="4s" repeatCount="indefinite"/>
    <animateTransform attributeName="transform" type="translate" 
                      values="0,-20;0,0;0,20" dur="4s" repeatCount="indefinite"/>
  </line>
</svg>